<?xml version="1.0" encoding="UTF-8"?>
<!DOCTYPE svg PUBLIC "-//W3C//DTD SVG 1.1//EN" "http://www.w3.org/Graphics/SVG/1.1/DTD/svg11.dtd">
<svg xmlns="http://www.w3.org/2000/svg" version="1.1" width="671px" height="437px" style="shape-rendering:geometricPrecision; text-rendering:geometricPrecision; image-rendering:optimizeQuality; fill-rule:evenodd; clip-rule:evenodd" xmlns:xlink="http://www.w3.org/1999/xlink">
<g><path style="opacity:0.004" fill="#fefffe" d="M 386.5,44.5 C 387.833,45.1667 387.833,45.1667 386.5,44.5 Z"/></g>
<g><path style="opacity:0.982" fill="#060606" d="M 388.5,46.5 C 396.174,46.3336 403.841,46.5003 411.5,47C 410.377,48.0437 409.044,48.7104 407.5,49C 411.821,48.5675 415.154,50.0675 417.5,53.5C 416.91,54.7989 415.91,55.6322 414.5,56C 416.525,57.194 416.859,58.694 415.5,60.5C 413.709,61.1698 412.042,61.8365 410.5,62.5C 409.5,62.5 408.5,62.5 407.5,62.5C 407.5,60.8333 407.5,59.1667 407.5,57.5C 405.446,57.3653 403.779,58.032 402.5,59.5C 398.841,60.1355 398.507,61.4689 401.5,63.5C 401.5,63.8333 401.5,64.1667 401.5,64.5C 398.99,64.0535 396.99,64.7202 395.5,66.5C 394.5,67.1667 393.5,67.8333 392.5,68.5C 385.439,72.1969 377.773,74.5303 369.5,75.5C 364.87,76.2295 360.203,76.5628 355.5,76.5C 354.85,76.1961 354.183,75.8627 353.5,75.5C 348.199,77.7099 342.865,79.7099 337.5,81.5C 336.141,80.9935 335.141,79.9935 334.5,78.5C 333.571,79.6888 333.238,81.0222 333.5,82.5C 331.901,82.2322 330.568,82.5655 329.5,83.5C 328.566,84.5676 328.232,85.901 328.5,87.5C 327.178,87.33 326.011,87.6634 325,88.5C 324.14,92.34 322.973,96.0067 321.5,99.5C 320.001,101.164 319.001,103.164 318.5,105.5C 318.747,106.713 319.414,107.38 320.5,107.5C 320.5,107.833 320.5,108.167 320.5,108.5C 319.603,109.598 318.77,109.598 318,108.5C 317.209,109.745 316.709,111.078 316.5,112.5C 314.313,116.895 312.646,121.562 311.5,126.5C 308.379,135.784 304.879,145.118 301,154.5C 299.184,160.451 297.684,166.451 296.5,172.5C 306.396,170.65 315.896,168.317 325,165.5C 326.226,165.645 327.393,165.978 328.5,166.5C 335.945,162.507 343.945,160.34 352.5,160C 355.662,158.973 358.662,157.806 361.5,156.5C 369.502,156.451 377.336,155.451 385,153.5C 387.124,154.227 389.291,154.894 391.5,155.5C 392.086,155.291 392.586,154.957 393,154.5C 394.491,156.004 396.324,156.837 398.5,157C 398.55,161.074 398.55,164.741 398.5,168C 396.892,168.658 395.725,168.158 395,166.5C 393.084,168.806 390.584,170.139 387.5,170.5C 386.833,169.5 386.167,168.5 385.5,167.5C 384.516,171.148 382.182,173.148 378.5,173.5C 378.5,174.5 378.5,175.5 378.5,176.5C 373.307,175.765 368.807,177.099 365,180.5C 363.604,179.606 362.104,178.939 360.5,178.5C 352.588,182.631 344.254,185.297 335.5,186.5C 335.881,188.942 335.214,189.609 333.5,188.5C 329.677,189.186 326.011,190.186 322.5,191.5C 320.302,191.875 318.302,192.542 316.5,193.5C 312.996,195.566 309.329,196.9 305.5,197.5C 303.143,197.337 300.81,197.503 298.5,198C 297.663,199.011 297.33,200.178 297.5,201.5C 296.833,201.833 296.167,202.167 295.5,202.5C 294.45,202.095 294.45,201.429 295.5,200.5C 294.311,199.571 292.978,199.238 291.5,199.5C 291.5,200.833 291.5,202.167 291.5,203.5C 286.485,204.844 284.485,208.177 285.5,213.5C 283.87,215.026 283.037,217.026 283,219.5C 281.621,226.107 280.787,232.773 280.5,239.5C 278.994,242.356 278.328,245.523 278.5,249C 278.504,251.361 278.837,253.527 279.5,255.5C 279.682,260.886 282.015,265.053 286.5,268C 293.785,269.414 301.118,269.747 308.5,269C 319.987,266.079 331.654,262.746 343.5,259C 346.974,256.721 350.64,254.888 354.5,253.5C 356.482,254.97 358.148,254.636 359.5,252.5C 360.768,253.428 362.101,253.595 363.5,253C 369.036,249.401 375.036,246.567 381.5,244.5C 384.243,246.016 387.076,247.35 390,248.5C 389.666,252.977 389.499,257.311 389.5,261.5C 388.761,261.631 388.094,261.464 387.5,261C 388.956,260.577 389.456,259.744 389,258.5C 386.063,255.845 383.896,256.178 382.5,259.5C 381.596,260.209 381.263,261.209 381.5,262.5C 378.538,262.117 377.538,263.117 378.5,265.5C 380.32,264.117 382.32,263.117 384.5,262.5C 385.492,262.328 386.158,262.662 386.5,263.5C 385.167,264.167 384.167,265.167 383.5,266.5C 382.508,266.328 381.842,266.662 381.5,267.5C 379.007,268.774 376.341,269.44 373.5,269.5C 373.5,271.167 373.5,272.833 373.5,274.5C 371.5,274.167 369.5,273.833 367.5,273.5C 367.727,275.933 366.727,277.599 364.5,278.5C 362.938,278.267 361.605,277.6 360.5,276.5C 358.291,275.024 356.958,275.691 356.5,278.5C 357.833,279.167 359.167,279.833 360.5,280.5C 356.752,282.273 352.752,283.44 348.5,284C 347.354,284.645 346.354,285.478 345.5,286.5C 342.851,283.961 340.184,283.961 337.5,286.5C 336.833,286.167 336.167,285.833 335.5,285.5C 334.101,288.564 331.768,290.564 328.5,291.5C 325.706,288.865 323.373,289.365 321.5,293C 315.615,293.078 309.615,293.411 303.5,294C 297.372,291.873 291.706,288.873 286.5,285C 277.475,276.965 270.308,267.465 265,256.5C 262.315,248.726 260.815,240.726 260.5,232.5C 261.45,222.797 262.283,213.131 263,203.5C 260.089,200.01 257.422,196.344 255,192.5C 254.811,188.83 253.977,185.33 252.5,182C 252.645,181.228 252.978,180.561 253.5,180C 259.627,180.084 265.461,178.917 271,176.5C 271.92,173.899 272.587,171.232 273,168.5C 274.74,167.284 275.74,165.618 276,163.5C 281.31,140.718 288.477,118.551 297.5,97C 297.164,95.9701 296.497,95.4701 295.5,95.5C 295.414,94.5041 295.748,93.6708 296.5,93C 293.942,92.7247 291.608,93.2247 289.5,94.5C 288.244,94.4614 287.244,94.9614 286.5,96C 287.833,97 287.833,98 286.5,99C 284.576,100.267 282.91,100.267 281.5,99C 280.167,98.3333 278.833,98.3333 277.5,99C 273.526,102.218 269.193,104.884 264.5,107C 260.328,107.868 257.162,106.368 255,102.5C 252.993,98.4648 250.993,94.4648 249,90.5C 248.54,83.9188 251.707,79.7522 258.5,78C 264.362,76.0486 270.029,73.7152 275.5,71C 284.879,67.488 294.546,64.6547 304.5,62.5C 304.01,60.0516 304.843,58.385 307,57.5C 309.589,58.6965 312.256,59.6965 315,60.5C 325.221,57.208 335.721,55.3746 346.5,55C 348.833,54 351.167,53 353.5,52C 365.367,50.5764 377.034,48.7431 388.5,46.5 Z"/></g>
<g><path style="opacity:0.949" fill="#2d2d2d" d="M 410.5,62.5 C 407.741,62.9333 406.408,64.6 406.5,67.5C 401.797,67.4372 397.13,67.7705 392.5,68.5C 393.5,67.8333 394.5,67.1667 395.5,66.5C 397.924,66.8076 400.257,66.4742 402.5,65.5C 402.376,64.8933 402.043,64.56 401.5,64.5C 401.5,64.1667 401.5,63.8333 401.5,63.5C 403.62,62.5967 403.954,61.2633 402.5,59.5C 403.779,58.032 405.446,57.3653 407.5,57.5C 407.5,59.1667 407.5,60.8333 407.5,62.5C 408.5,62.5 409.5,62.5 410.5,62.5 Z"/></g>
<g><path style="opacity:0.153" fill="#bfbfbf" d="M 402.5,59.5 C 403.954,61.2633 403.62,62.5967 401.5,63.5C 398.507,61.4689 398.841,60.1355 402.5,59.5 Z"/></g>
<g><path style="opacity:0.365" fill="#9e9e9e" d="M 401.5,64.5 C 402.043,64.56 402.376,64.8933 402.5,65.5C 400.257,66.4742 397.924,66.8076 395.5,66.5C 396.99,64.7202 398.99,64.0535 401.5,64.5 Z"/></g>
<g><path style="opacity:0.204" fill="#e4e4e4" d="M 383.5,66.5 C 385.527,66.3379 387.527,66.5045 389.5,67C 387.121,69.1422 385.121,68.9755 383.5,66.5 Z"/></g>
<g><path style="opacity:0.014" fill="#ececec" d="M 367.5,78.5 C 367.782,77.2223 368.449,76.2223 369.5,75.5C 377.773,74.5303 385.439,72.1969 392.5,68.5C 397.13,67.7705 401.797,67.4372 406.5,67.5C 406.408,64.6 407.741,62.9333 410.5,62.5C 412.042,61.8365 413.709,61.1698 415.5,60.5C 416.859,58.694 416.525,57.194 414.5,56C 415.91,55.6322 416.91,54.7989 417.5,53.5C 415.154,50.0675 411.821,48.5675 407.5,49C 409.044,48.7104 410.377,48.0437 411.5,47C 403.841,46.5003 396.174,46.3336 388.5,46.5C 396.975,44.0156 405.642,43.8489 414.5,46C 415.284,48.582 416.951,50.2486 419.5,51C 418.39,53.7372 418.223,56.5706 419,59.5C 419.333,57.5 419.667,55.5 420,53.5C 420.497,56.146 420.664,58.8127 420.5,61.5C 415.814,62.3369 411.981,64.6702 409,68.5C 407.512,67.8042 406.012,68.1375 404.5,69.5C 400.878,70.3253 397.211,70.8253 393.5,71C 386.883,75.932 379.55,77.7653 371.5,76.5C 370.378,77.6302 369.044,78.2969 367.5,78.5 Z"/></g>
<g><path style="opacity:0.029" fill="#f1f1f1" d="M 388.5,46.5 C 377.034,48.7431 365.367,50.5764 353.5,52C 351.167,53 348.833,54 346.5,55C 335.721,55.3746 325.221,57.208 315,60.5C 312.256,59.6965 309.589,58.6965 307,57.5C 304.843,58.385 304.01,60.0516 304.5,62.5C 294.546,64.6547 284.879,67.488 275.5,71C 270.029,73.7152 264.362,76.0486 258.5,78C 251.707,79.7522 248.54,83.9188 249,90.5C 250.993,94.4648 252.993,98.4648 255,102.5C 257.162,106.368 260.328,107.868 264.5,107C 269.193,104.884 273.526,102.218 277.5,99C 278.833,98.3333 280.167,98.3333 281.5,99C 282.91,100.267 284.576,100.267 286.5,99C 287.833,98 287.833,97 286.5,96C 287.244,94.9614 288.244,94.4614 289.5,94.5C 291.565,94.5172 293.565,94.8505 295.5,95.5C 296.497,95.4701 297.164,95.9701 297.5,97C 288.477,118.551 281.31,140.718 276,163.5C 275.74,165.618 274.74,167.284 273,168.5C 272.587,171.232 271.92,173.899 271,176.5C 265.461,178.917 259.627,180.084 253.5,180C 252.978,180.561 252.645,181.228 252.5,182C 253.977,185.33 254.811,188.83 255,192.5C 257.422,196.344 260.089,200.01 263,203.5C 262.283,213.131 261.45,222.797 260.5,232.5C 260.815,240.726 262.315,248.726 265,256.5C 270.308,267.465 277.475,276.965 286.5,285C 291.706,288.873 297.372,291.873 303.5,294C 309.615,293.411 315.615,293.078 321.5,293C 323.373,289.365 325.706,288.865 328.5,291.5C 331.768,290.564 334.101,288.564 335.5,285.5C 336.167,285.833 336.833,286.167 337.5,286.5C 340.184,283.961 342.851,283.961 345.5,286.5C 346.354,285.478 347.354,284.645 348.5,284C 352.752,283.44 356.752,282.273 360.5,280.5C 362.153,280.34 363.486,279.674 364.5,278.5C 366.727,277.599 367.727,275.933 367.5,273.5C 369.5,273.833 371.5,274.167 373.5,274.5C 373.5,272.833 373.5,271.167 373.5,269.5C 376.341,269.44 379.007,268.774 381.5,267.5C 382.859,268.007 383.859,269.007 384.5,270.5C 385.417,269.873 386.417,269.539 387.5,269.5C 385.868,270.832 384.201,272.165 382.5,273.5C 374.943,275.615 367.943,278.781 361.5,283C 356.083,284.209 350.75,285.709 345.5,287.5C 344.558,287.392 343.725,287.059 343,286.5C 338.062,289.016 333.229,291.683 328.5,294.5C 327.833,294.167 327.167,293.833 326.5,293.5C 323.456,294.719 320.289,295.386 317,295.5C 311.972,295.268 306.805,295.101 301.5,295C 296.134,293.412 291.134,291.078 286.5,288C 282.332,282.999 277.665,278.499 272.5,274.5C 268.57,267.859 264.736,261.192 261,254.5C 258.949,247.467 257.783,240.301 257.5,233C 259.217,223.993 260.05,214.826 260,205.5C 258.064,201.896 255.731,198.563 253,195.5C 252.454,190.961 251.287,186.294 249.5,181.5C 250.952,176.899 253.952,175.566 258.5,177.5C 259.696,177.154 259.696,176.654 258.5,176C 261.167,175.667 263.833,175.333 266.5,175C 268.32,174.021 269.487,172.521 270,170.5C 270.333,170.833 270.667,171.167 271,171.5C 271.765,169.934 271.598,168.601 270.5,167.5C 271.164,165.513 272.331,163.846 274,162.5C 276.734,144.826 281.734,127.826 289,111.5C 289.61,108.173 290.11,104.839 290.5,101.5C 287.342,102.355 284.342,102.688 281.5,102.5C 275.377,105.259 269.044,107.593 262.5,109.5C 258.292,109.267 254.792,107.6 252,104.5C 250.599,99.5445 248.599,94.8778 246,90.5C 245.333,87.8333 245.333,85.1667 246,82.5C 255.759,76.2436 265.926,71.7436 276.5,69C 276.167,68.6667 275.833,68.3333 275.5,68C 280.147,67.3741 284.48,65.8741 288.5,63.5C 290.325,64.5709 291.492,63.9042 292,61.5C 294.157,64.0782 295.323,64.0782 295.5,61.5C 296.167,61.8333 296.833,62.1667 297.5,62.5C 300.214,59.2856 303.38,56.619 307,54.5C 308.605,55.1007 309.938,56.1007 311,57.5C 313.953,56.249 316.953,56.249 320,57.5C 322.749,57.026 325.249,56.026 327.5,54.5C 328.167,54.8333 328.833,55.1667 329.5,55.5C 333.779,54.726 338.113,54.226 342.5,54C 347.167,50.1104 352.501,48.4438 358.5,49C 356.833,49.3333 355.167,49.6667 353.5,50C 354.5,50.1667 355.5,50.3333 356.5,50.5C 365.485,47.6284 374.652,45.6284 384,44.5C 385.049,46.1066 386.549,46.7733 388.5,46.5 Z"/></g>
<g><path style="opacity:0.216" fill="#b2b2b2" d="M 374.5,67.5 C 376.977,67.0508 378.977,67.7175 380.5,69.5C 378.041,70.3263 375.541,70.993 373,71.5C 371.941,71.3699 371.108,70.8699 370.5,70C 372.437,69.8784 373.77,69.045 374.5,67.5 Z"/></g>
<g><path style="opacity:0.078" fill="#9f9f9f" d="M 369.5,75.5 C 368.449,76.2223 367.782,77.2223 367.5,78.5C 367.5,79.1667 367.167,79.5 366.5,79.5C 366.389,78.8826 366.056,78.3826 365.5,78C 361.975,77.8213 358.641,77.3213 355.5,76.5C 360.203,76.5628 364.87,76.2295 369.5,75.5 Z"/></g>
<g><path style="opacity:0.765" fill="#474747" d="M 337.5,81.5 C 336.53,82.6293 335.364,83.6293 334,84.5C 332.56,83.8524 331.06,83.5191 329.5,83.5C 330.568,82.5655 331.901,82.2322 333.5,82.5C 333.238,81.0222 333.571,79.6888 334.5,78.5C 335.141,79.9935 336.141,80.9935 337.5,81.5 Z"/></g>
<g><path style="opacity:0.013" fill="#eaeaea" d="M 355.5,76.5 C 358.641,77.3213 361.975,77.8213 365.5,78C 366.056,78.3826 366.389,78.8826 366.5,79.5C 361.901,79.8 357.401,79.4667 353,78.5C 352.598,79.8721 352.098,81.2054 351.5,82.5C 342.914,83.3057 335.08,85.9724 328,90.5C 327.667,89.8333 327.333,89.1667 327,88.5C 326.08,91.1013 325.413,93.7679 325,96.5C 324.241,98.0629 323.074,99.0629 321.5,99.5C 322.973,96.0067 324.14,92.34 325,88.5C 326.011,87.6634 327.178,87.33 328.5,87.5C 328.232,85.901 328.566,84.5676 329.5,83.5C 331.06,83.5191 332.56,83.8524 334,84.5C 335.364,83.6293 336.53,82.6293 337.5,81.5C 342.865,79.7099 348.199,77.7099 353.5,75.5C 354.183,75.8627 354.85,76.1961 355.5,76.5 Z"/></g>
<g><path style="opacity:0.345" fill="#616161" d="M 295.5,95.5 C 293.565,94.8505 291.565,94.5172 289.5,94.5C 291.608,93.2247 293.942,92.7247 296.5,93C 295.748,93.6708 295.414,94.5041 295.5,95.5 Z"/></g>
<g><path style="opacity:0.004" fill="#fefffe" d="M 281.5,102.5 C 282.239,102.369 282.906,102.536 283.5,103C 282.563,103.692 281.897,103.525 281.5,102.5 Z"/></g>
<g><path style="opacity:0.011" fill="#dcdcdc" d="M 321.5,99.5 C 321.167,102.167 320.833,104.833 320.5,107.5C 319.414,107.38 318.747,106.713 318.5,105.5C 319.001,103.164 320.001,101.164 321.5,99.5 Z"/></g>
<g><path style="opacity:0.004" fill="#fefffe" d="M 321.5,105.5 C 322.833,106.167 322.833,106.167 321.5,105.5 Z"/></g>
<g><path style="opacity:0.039" fill="#d8d8d8" d="M 320.5,108.5 C 319.833,110.5 318.5,111.833 316.5,112.5C 316.709,111.078 317.209,109.745 318,108.5C 318.77,109.598 319.603,109.598 320.5,108.5 Z"/></g>
<g><path style="opacity:0.006" fill="#d4d4d4" d="M 316.5,112.5 C 315.991,117.703 314.324,122.37 311.5,126.5C 312.646,121.562 314.313,116.895 316.5,112.5 Z"/></g>
<g><path style="opacity:0.004" fill="#fefffe" d="M 312.5,127.5 C 313.833,128.167 313.833,128.167 312.5,127.5 Z"/></g>
<g><path style="opacity:0.004" fill="#fefffe" d="M 382.5,151.5 C 383.251,150.427 384.251,150.26 385.5,151C 384.552,151.483 383.552,151.649 382.5,151.5 Z"/></g>
<g><path style="opacity:0.004" fill="#fefffe" d="M 377.5,151.5 C 378.833,152.167 378.833,152.167 377.5,151.5 Z"/></g>
<g><path style="opacity:0.094" fill="#acacac" d="M 294.5,151.5 C 296.616,153.088 296.949,155.088 295.5,157.5C 294.534,155.604 294.201,153.604 294.5,151.5 Z"/></g>
<g><path style="opacity:0.052" fill="#e2e2e2" d="M 311.5,126.5 C 311.433,128.401 311.767,130.234 312.5,132C 309.568,137.865 306.902,143.865 304.5,150C 304.735,150.873 305.069,151.707 305.5,152.5C 305.154,153.696 304.654,153.696 304,152.5C 302.231,158.051 301.065,163.718 300.5,169.5C 315.342,166.497 330.175,163.163 345,159.5C 349.937,156.933 355.104,155.433 360.5,155C 358.068,156.087 358.402,156.587 361.5,156.5C 358.662,157.806 355.662,158.973 352.5,160C 343.945,160.34 335.945,162.507 328.5,166.5C 327.393,165.978 326.226,165.645 325,165.5C 315.896,168.317 306.396,170.65 296.5,172.5C 297.684,166.451 299.184,160.451 301,154.5C 304.879,145.118 308.379,135.784 311.5,126.5 Z"/></g>
<g><path style="opacity:0.004" fill="#fefffe" d="M 270.5,167.5 C 269.833,168.167 269.833,168.167 270.5,167.5 Z"/></g>
<g><path style="opacity:0.014" fill="#e1e1e1" d="M 328.5,193.5 C 326.143,193.663 323.81,193.497 321.5,193C 322.056,192.617 322.389,192.117 322.5,191.5C 326.011,190.186 329.677,189.186 333.5,188.5C 335.214,189.609 335.881,188.942 335.5,186.5C 344.254,185.297 352.588,182.631 360.5,178.5C 362.104,178.939 363.604,179.606 365,180.5C 368.807,177.099 373.307,175.765 378.5,176.5C 378.5,175.5 378.5,174.5 378.5,173.5C 382.182,173.148 384.516,171.148 385.5,167.5C 386.167,168.5 386.833,169.5 387.5,170.5C 390.584,170.139 393.084,168.806 395,166.5C 395.725,168.158 396.892,168.658 398.5,168C 398.55,164.741 398.55,161.074 398.5,157C 396.324,156.837 394.491,156.004 393,154.5C 392.586,154.957 392.086,155.291 391.5,155.5C 389.291,154.894 387.124,154.227 385,153.5C 377.336,155.451 369.502,156.451 361.5,156.5C 364.758,155.902 367.758,154.568 370.5,152.5C 380.197,152.427 388.364,152.427 395,152.5C 398.989,154.489 401.489,157.656 402.5,162C 400.311,162.677 399.978,163.844 401.5,165.5C 401.023,166.931 400.357,168.264 399.5,169.5C 395.981,170.932 392.314,171.766 388.5,172C 385.086,174.402 381.42,176.402 377.5,178C 377.833,178.333 378.167,178.667 378.5,179C 373.089,179.853 367.755,181.02 362.5,182.5C 361.833,182.167 361.167,181.833 360.5,181.5C 359.231,183.18 357.564,184.347 355.5,185C 349.856,186.604 344.19,188.104 338.5,189.5C 337.914,189.291 337.414,188.957 337,188.5C 336.082,190.632 334.749,191.299 333,190.5C 331.266,191.249 329.433,191.749 327.5,192C 328.056,192.383 328.389,192.883 328.5,193.5 Z"/></g>
<g><path style="opacity:0.043" fill="#969696" d="M 322.5,191.5 C 322.389,192.117 322.056,192.617 321.5,193C 323.81,193.497 326.143,193.663 328.5,193.5C 328.938,193.435 329.272,193.601 329.5,194C 326.893,196.105 323.893,196.938 320.5,196.5C 318.158,196.225 318.158,195.392 320.5,194C 319.207,193.51 317.873,193.343 316.5,193.5C 318.302,192.542 320.302,191.875 322.5,191.5 Z"/></g>
<g><path style="opacity:0.009" fill="#eaeaea" d="M 316.5,193.5 C 317.873,193.343 319.207,193.51 320.5,194C 318.158,195.392 318.158,196.225 320.5,196.5C 319.791,197.404 318.791,197.737 317.5,197.5C 317.671,194.203 317.005,193.869 315.5,196.5C 312.633,197.774 309.633,198.607 306.5,199C 307.712,200.107 307.379,200.607 305.5,200.5C 305.5,199.5 305.5,198.5 305.5,197.5C 309.329,196.9 312.996,195.566 316.5,193.5 Z"/></g>
<g><path style="opacity:0.008" fill="#6e6e6e" d="M 305.5,197.5 C 305.5,198.5 305.5,199.5 305.5,200.5C 303.052,201.473 300.385,201.806 297.5,201.5C 297.33,200.178 297.663,199.011 298.5,198C 300.81,197.503 303.143,197.337 305.5,197.5 Z"/></g>
<g><path style="opacity:0.037" fill="#b3b3b3" d="M 295.5,202.5 C 294.432,203.434 293.099,203.768 291.5,203.5C 291.5,202.167 291.5,200.833 291.5,199.5C 292.978,199.238 294.311,199.571 295.5,200.5C 294.45,201.429 294.45,202.095 295.5,202.5 Z"/></g>
<g><path style="opacity:0.02" fill="#e6e6e6" d="M 291.5,203.5 C 288.489,206.182 286.489,209.515 285.5,213.5C 284.485,208.177 286.485,204.844 291.5,203.5 Z"/></g>
<g><path style="opacity:0.004" fill="#fefffe" d="M 285.5,218.5 C 286.833,219.167 286.833,219.167 285.5,218.5 Z"/></g>
<g><path style="opacity:0.024" fill="#c8c8c8" d="M 285.5,213.5 C 284.641,219.677 283.641,225.844 282.5,232C 282.354,234.034 283.02,235.701 284.5,237C 283.833,238.333 282.833,239.333 281.5,240C 284.106,242.299 284.106,244.466 281.5,246.5C 280.833,246.5 280.167,246.5 279.5,246.5C 281.792,244.549 282.125,242.216 280.5,239.5C 280.787,232.773 281.621,226.107 283,219.5C 283.037,217.026 283.87,215.026 285.5,213.5 Z"/></g>
<g><path style="opacity:0.03" fill="#eeeeee" d="M 387.5,268.5 C 385.938,268.267 384.605,267.6 383.5,266.5C 384.167,265.167 385.167,264.167 386.5,263.5C 387.71,263.068 388.71,262.401 389.5,261.5C 389.499,257.311 389.666,252.977 390,248.5C 387.076,247.35 384.243,246.016 381.5,244.5C 375.036,246.567 369.036,249.401 363.5,253C 362.101,253.595 360.768,253.428 359.5,252.5C 358.148,254.636 356.482,254.97 354.5,253.5C 350.64,254.888 346.974,256.721 343.5,259C 331.654,262.746 319.987,266.079 308.5,269C 301.118,269.747 293.785,269.414 286.5,268C 282.015,265.053 279.682,260.886 279.5,255.5C 279.5,252.5 279.5,249.5 279.5,246.5C 280.167,246.5 280.833,246.5 281.5,246.5C 278.342,260.516 284.009,267.016 298.5,266C 296.5,266.333 294.5,266.667 292.5,267C 296.244,267.929 299.744,267.429 303,265.5C 305.624,265.47 308.291,265.803 311,266.5C 311.5,265.333 312.333,264.5 313.5,264C 324.877,261.097 335.877,257.43 346.5,253C 353.273,250.606 360.273,248.939 367.5,248C 369.936,244.664 372.936,243.831 376.5,245.5C 376.5,244.5 376.5,243.5 376.5,242.5C 378.582,242.528 380.416,241.861 382,240.5C 385.645,243.724 389.478,246.557 393.5,249C 392.692,249.308 392.025,249.808 391.5,250.5C 392.687,251.519 393.687,252.686 394.5,254C 393.044,256.266 392.21,258.766 392,261.5C 389.933,262.762 388.1,264.596 386.5,267C 387.056,267.383 387.389,267.883 387.5,268.5 Z"/></g>
<g><path style="opacity:0.398" fill="#474747" d="M 280.5,239.5 C 282.125,242.216 281.792,244.549 279.5,246.5C 279.5,249.5 279.5,252.5 279.5,255.5C 278.837,253.527 278.504,251.361 278.5,249C 278.328,245.523 278.994,242.356 280.5,239.5 Z"/></g>
<g><path style="opacity:0.089" fill="#c0c0c0" d="M 382.5,259.5 C 383.766,260.09 385.099,260.59 386.5,261C 385.584,261.278 384.918,261.778 384.5,262.5C 382.32,263.117 380.32,264.117 378.5,265.5C 377.538,263.117 378.538,262.117 381.5,262.5C 381.263,261.209 381.596,260.209 382.5,259.5 Z"/></g>
<g><path style="opacity:0.4" fill="#7b7b7b" d="M 389.5,261.5 C 388.71,262.401 387.71,263.068 386.5,263.5C 386.158,262.662 385.492,262.328 384.5,262.5C 384.918,261.778 385.584,261.278 386.5,261C 385.099,260.59 383.766,260.09 382.5,259.5C 383.896,256.178 386.063,255.845 389,258.5C 389.456,259.744 388.956,260.577 387.5,261C 388.094,261.464 388.761,261.631 389.5,261.5 Z"/></g>
<g><path style="opacity:0.224" fill="#838383" d="M 381.5,267.5 C 381.842,266.662 382.508,266.328 383.5,266.5C 384.605,267.6 385.938,268.267 387.5,268.5C 388.833,268.833 388.833,269.167 387.5,269.5C 386.417,269.539 385.417,269.873 384.5,270.5C 383.859,269.007 382.859,268.007 381.5,267.5 Z"/></g>
<g><path style="opacity:0.591" fill="#262626" d="M 375.5,272.5 C 377.288,271.378 379.288,271.211 381.5,272C 379.544,273.612 377.544,273.778 375.5,272.5 Z"/></g>
<g><path style="opacity:0.122" fill="#d5d5d5" d="M 360.5,276.5 C 359.817,278.176 358.483,278.843 356.5,278.5C 356.958,275.691 358.291,275.024 360.5,276.5 Z"/></g>
<g><path style="opacity:0.396" fill="#6d6d6d" d="M 360.5,276.5 C 361.605,277.6 362.938,278.267 364.5,278.5C 363.486,279.674 362.153,280.34 360.5,280.5C 359.167,279.833 357.833,279.167 356.5,278.5C 358.483,278.843 359.817,278.176 360.5,276.5 Z"/></g>
<g><path style="opacity:0.028" fill="#fefffe" d="M 269.5,318.5 C 256.989,318.171 244.655,318.505 232.5,319.5C 232.5,322.833 232.5,326.167 232.5,329.5C 231.838,327.696 231.505,325.696 231.5,323.5C 231.59,321.036 232.257,318.87 233.5,317C 235.764,316.764 237.931,316.264 240,315.5C 240.5,316 241,316.5 241.5,317C 250.196,317.776 258.862,317.61 267.5,316.5C 268.713,316.747 269.38,317.414 269.5,318.5 Z"/></g>
<g><path style="opacity:0.041" fill="#f4f4f4" d="M 495.5,360.5 C 493.397,361.98 493.397,363.147 495.5,364C 494.529,365.481 493.196,366.315 491.5,366.5C 491.5,365.833 491.167,365.5 490.5,365.5C 500.61,350.876 499.61,337.042 487.5,324C 473.076,315.43 459.909,316.93 448,328.5C 439.013,343.882 441.179,357.382 454.5,369C 457.158,370.478 459.825,371.645 462.5,372.5C 451.926,373.03 445.593,368.03 443.5,357.5C 442.325,357.719 441.325,357.386 440.5,356.5C 439.869,351.692 439.869,345.026 440.5,336.5C 444.144,324.523 452.144,317.523 464.5,315.5C 465.167,315.667 465.833,315.833 466.5,316C 465.5,316.333 464.5,316.667 463.5,317C 470.804,317.391 477.804,317.891 484.5,318.5C 484.351,319.552 484.517,320.552 485,321.5C 486.06,321.746 487.227,321.746 488.5,321.5C 490.167,322.667 491.833,323.833 493.5,325C 493.167,325.333 492.833,325.667 492.5,326C 499.184,337.068 500.184,348.568 495.5,360.5 Z M 466.5,331.5 C 480.509,331.887 485.175,338.887 480.5,352.5C 479.618,353.76 478.618,354.926 477.5,356C 473.32,358.084 469.154,359.25 465,359.5C 458.735,357.228 455.568,352.728 455.5,346C 455.656,341.864 456.823,338.031 459,334.5C 460.473,334.868 461.973,334.368 463.5,333C 463.167,332.667 462.833,332.333 462.5,332C 463.946,330.702 465.279,330.535 466.5,331.5 Z"/></g>
<g><path style="opacity:0.094" fill="#fefffe" d="M 151.5,318.5 C 140.986,318.172 130.653,318.506 120.5,319.5C 120.5,337.167 120.5,354.833 120.5,372.5C 119.168,363.859 118.502,354.859 118.5,345.5C 118.667,336.5 118.833,327.5 119,318.5C 120.739,317.106 122.739,316.439 125,316.5C 132.843,317.779 140.676,317.779 148.5,316.5C 150.038,316.453 151.038,317.12 151.5,318.5 Z"/></g>
<g><path style="opacity:0.023" fill="#e1e1e1" d="M 188.5,327.5 C 186.503,325.487 184.836,323.154 183.5,320.5C 179.217,319.508 174.884,319.174 170.5,319.5C 170.5,337.167 170.5,354.833 170.5,372.5C 173.833,372.5 177.167,372.5 180.5,372.5C 180.833,372.5 181.167,372.5 181.5,372.5C 177.366,373.485 173.032,373.818 168.5,373.5C 167.373,355.531 167.207,337.531 168,319.5C 168.772,318.151 169.939,317.318 171.5,317C 175.681,316.712 179.681,316.712 183.5,317C 187.563,320.225 189.229,323.725 188.5,327.5 Z"/></g>
<g><path style="opacity:0.015" fill="#f2f2f2" d="M 217.5,372.5 C 217.5,354.833 217.5,337.167 217.5,319.5C 213.833,319.5 210.167,319.5 206.5,319.5C 206.667,331.838 206.5,344.171 206,356.5C 202.971,352.438 200.471,348.105 198.5,343.5C 196.05,341.371 194.383,338.704 193.5,335.5C 194.222,335.082 194.722,334.416 195,333.5C 195.679,337.285 197.845,339.951 201.5,341.5C 205.044,334.226 205.378,328.226 202.5,323.5C 202.571,320.802 203.237,318.802 204.5,317.5C 207.156,317.147 209.823,316.814 212.5,316.5C 214.593,316.486 216.426,317.152 218,318.5C 218.829,336.671 218.662,354.671 217.5,372.5 Z"/></g>
<g><path style="opacity:0.017" fill="#fefefe" d="M 545.5,318.5 C 533.322,318.172 521.322,318.505 509.5,319.5C 508.521,322.625 508.187,325.958 508.5,329.5C 507.005,329.585 506.005,328.919 505.5,327.5C 506.634,325.538 506.634,323.538 505.5,321.5C 505.667,320.833 505.833,320.167 506,319.5C 506.333,320.5 506.667,321.5 507,322.5C 507.495,320.527 507.662,318.527 507.5,316.5C 517.835,317.677 528.168,317.677 538.5,316.5C 541.205,316.316 543.538,316.983 545.5,318.5 Z"/></g>
<g><path style="opacity:0.02" fill="#e9e9e9" d="M 372.5,329.5 C 365.833,329.5 359.167,329.5 352.5,329.5C 358.979,328.509 365.646,328.176 372.5,328.5C 372.5,325.5 372.5,322.5 372.5,319.5C 362.167,319.5 351.833,319.5 341.5,319.5C 341.5,337.167 341.5,354.833 341.5,372.5C 342.5,372.5 343.5,372.5 344.5,372.5C 343.081,373.451 341.415,373.784 339.5,373.5C 339.124,354.633 338.791,336.133 338.5,318C 340.657,316.71 342.99,315.876 345.5,315.5C 353.653,317.602 361.819,317.935 370,316.5C 374.288,318.926 375.622,322.593 374,327.5C 373.722,328.416 373.222,329.082 372.5,329.5 Z"/></g>
<g><path style="opacity:0.35" fill="#b8b8b8" d="M 120.5,319.5 C 130.653,318.506 140.986,318.172 151.5,318.5C 152.833,322.167 152.833,325.833 151.5,329.5C 144.833,329.5 138.167,329.5 131.5,329.5C 137.979,328.509 144.646,328.176 151.5,328.5C 151.5,325.5 151.5,322.5 151.5,319.5C 141.167,319.5 130.833,319.5 120.5,319.5 Z"/></g>
<g><path style="opacity:0.375" fill="#cbcbcb" d="M 232.5,319.5 C 244.655,318.505 256.989,318.171 269.5,318.5C 270.833,322.167 270.833,325.833 269.5,329.5C 269.813,325.958 269.479,322.625 268.5,319.5C 256.833,319.5 245.167,319.5 233.5,319.5C 233.167,319.5 232.833,319.5 232.5,319.5 Z"/></g>
<g><path style="opacity:0.094" fill="#f8f8f8" d="M 321.5,331.5 C 319.818,325.346 315.818,321.513 309.5,320C 301.173,319.5 292.84,319.334 284.5,319.5C 284.5,337.167 284.5,354.833 284.5,372.5C 283.063,355.581 281.729,338.414 280.5,321C 282.333,319.5 284.167,318 286,316.5C 293.667,317.167 301.333,317.833 309,318.5C 309.561,317.978 310.228,317.645 311,317.5C 313.932,320.19 316.932,322.19 320,323.5C 321.079,326.063 321.579,328.729 321.5,331.5 Z"/></g>
<g><path style="opacity:0.973" fill="#090909" d="M 490.5,365.5 C 488.246,366.124 486.579,367.457 485.5,369.5C 482.743,370.512 480.076,371.512 477.5,372.5C 472.5,372.5 467.5,372.5 462.5,372.5C 459.825,371.645 457.158,370.478 454.5,369C 441.179,357.382 439.013,343.882 448,328.5C 459.909,316.93 473.076,315.43 487.5,324C 499.61,337.042 500.61,350.876 490.5,365.5 Z M 466.5,331.5 C 465.279,330.535 463.946,330.702 462.5,332C 462.833,332.333 463.167,332.667 463.5,333C 461.973,334.368 460.473,334.868 459,334.5C 456.823,338.031 455.656,341.864 455.5,346C 455.568,352.728 458.735,357.228 465,359.5C 469.154,359.25 473.32,358.084 477.5,356C 478.618,354.926 479.618,353.76 480.5,352.5C 485.175,338.887 480.509,331.887 466.5,331.5 Z"/></g>
<g><path style="opacity:0.335" fill="#cccccc" d="M 509.5,319.5 C 521.322,318.505 533.322,318.172 545.5,318.5C 546.249,319.531 546.915,320.698 547.5,322C 546.167,324 546.167,326 547.5,328C 546.956,328.717 546.289,329.217 545.5,329.5C 545.5,329.167 545.5,328.833 545.5,328.5C 545.5,325.5 545.5,322.5 545.5,319.5C 533.5,319.5 521.5,319.5 509.5,319.5 Z"/></g>
<g><path style="opacity:0.951" fill="#040404" d="M 120.5,319.5 C 130.833,319.5 141.167,319.5 151.5,319.5C 151.5,322.5 151.5,325.5 151.5,328.5C 144.646,328.176 137.979,328.509 131.5,329.5C 131.5,333.167 131.5,336.833 131.5,340.5C 136.975,341.489 142.642,341.822 148.5,341.5C 148.5,344.5 148.5,347.5 148.5,350.5C 142.833,350.5 137.167,350.5 131.5,350.5C 131.5,354.5 131.5,358.5 131.5,362.5C 138.167,362.5 144.833,362.5 151.5,362.5C 151.5,365.833 151.5,369.167 151.5,372.5C 141.205,372.55 130.871,372.55 120.5,372.5C 120.5,354.833 120.5,337.167 120.5,319.5 Z"/></g>
<g><path style="opacity:0.969" fill="#060606" d="M 188.5,327.5 C 189.383,330.704 191.05,333.371 193.5,335.5C 194.383,338.704 196.05,341.371 198.5,343.5C 200.471,348.105 202.971,352.438 206,356.5C 206.5,344.171 206.667,331.838 206.5,319.5C 210.167,319.5 213.833,319.5 217.5,319.5C 217.5,337.167 217.5,354.833 217.5,372.5C 213,373.664 208.666,373.664 204.5,372.5C 197.167,360.5 189.833,348.5 182.5,336.5C 182.217,335.711 181.717,335.044 181,334.5C 180.5,347.162 180.333,359.829 180.5,372.5C 177.167,372.5 173.833,372.5 170.5,372.5C 170.5,354.833 170.5,337.167 170.5,319.5C 174.884,319.174 179.217,319.508 183.5,320.5C 184.836,323.154 186.503,325.487 188.5,327.5 Z"/></g>
<g><path style="opacity:0.974" fill="#060606" d="M 233.5,319.5 C 245.167,319.5 256.833,319.5 268.5,319.5C 268.5,322.5 268.5,325.5 268.5,328.5C 264.298,328.183 260.298,328.517 256.5,329.5C 256.5,343.833 256.5,358.167 256.5,372.5C 252.747,373.665 249.08,373.665 245.5,372.5C 245.5,358.167 245.5,343.833 245.5,329.5C 241.702,328.517 237.702,328.183 233.5,328.5C 233.5,325.5 233.5,322.5 233.5,319.5 Z"/></g>
<g><path style="opacity:0.965" fill="#0c0c0c" d="M 321.5,331.5 C 321.47,335.618 320.803,339.618 319.5,343.5C 316.896,345.782 313.896,347.116 310.5,347.5C 312.951,353.951 316.617,359.618 321.5,364.5C 322.833,367.167 324.167,369.833 325.5,372.5C 321.268,372.578 316.934,372.578 312.5,372.5C 311.617,369.296 309.95,366.629 307.5,364.5C 305.1,359.368 302.434,354.368 299.5,349.5C 298.432,348.566 297.099,348.232 295.5,348.5C 295.5,356.5 295.5,364.5 295.5,372.5C 291.672,373.498 288.006,373.498 284.5,372.5C 284.5,354.833 284.5,337.167 284.5,319.5C 292.84,319.334 301.173,319.5 309.5,320C 315.818,321.513 319.818,325.346 321.5,331.5 Z M 306.5,331.5 C 308.818,335.927 307.151,338.261 301.5,338.5C 300.228,338.43 299.062,338.097 298,337.5C 297.066,330.215 299.899,328.215 306.5,331.5 Z"/></g>
<g><path style="opacity:0.96" fill="#020202" d="M 352.5,329.5 C 352.5,333.5 352.5,337.5 352.5,341.5C 358.167,341.5 363.833,341.5 369.5,341.5C 369.5,344.5 369.5,347.5 369.5,350.5C 363.833,350.5 358.167,350.5 352.5,350.5C 352.5,354.5 352.5,358.5 352.5,362.5C 358.645,363.49 364.978,363.823 371.5,363.5C 371.5,366.5 371.5,369.5 371.5,372.5C 362.723,372.602 353.723,372.602 344.5,372.5C 343.5,372.5 342.5,372.5 341.5,372.5C 341.5,354.833 341.5,337.167 341.5,319.5C 351.833,319.5 362.167,319.5 372.5,319.5C 372.5,322.5 372.5,325.5 372.5,328.5C 365.646,328.176 358.979,328.509 352.5,329.5 Z"/></g>
<g><path style="opacity:0.955" fill="#080808" d="M 509.5,319.5 C 521.5,319.5 533.5,319.5 545.5,319.5C 545.5,322.5 545.5,325.5 545.5,328.5C 541.167,328.5 536.833,328.5 532.5,328.5C 532.5,343.167 532.5,357.833 532.5,372.5C 528.833,372.5 525.167,372.5 521.5,372.5C 521.5,358.167 521.5,343.833 521.5,329.5C 517.702,328.517 513.702,328.183 509.5,328.5C 509.5,325.5 509.5,322.5 509.5,319.5 Z"/></g>
<g><path style="opacity:0.004" fill="#fefffe" d="M 387.5,320.5 C 388.833,321.167 388.833,321.167 387.5,320.5 Z"/></g>
<g><path style="opacity:0.004" fill="#fefffe" d="M 229.5,321.5 C 230.525,321.897 230.692,322.563 230,323.5C 229.536,322.906 229.369,322.239 229.5,321.5 Z"/></g>
<g><path style="opacity:0.004" fill="#fefffe" d="M 387.5,322.5 C 388.657,331.324 388.824,340.324 388,349.5C 387.5,340.506 387.334,331.506 387.5,322.5 Z"/></g>
<g><path style="opacity:0.447" fill="#7e7e7e" d="M 232.5,319.5 C 232.833,319.5 233.167,319.5 233.5,319.5C 233.5,322.5 233.5,325.5 233.5,328.5C 237.702,328.183 241.702,328.517 245.5,329.5C 241.167,329.5 236.833,329.5 232.5,329.5C 232.5,326.167 232.5,322.833 232.5,319.5 Z"/></g>
<g><path style="opacity:0.32" fill="#6b6b6b" d="M 268.5,319.5 C 269.479,322.625 269.813,325.958 269.5,329.5C 265.167,329.5 260.833,329.5 256.5,329.5C 260.298,328.517 264.298,328.183 268.5,328.5C 268.5,325.5 268.5,322.5 268.5,319.5 Z"/></g>
<g><path style="opacity:0.068" fill="#f8f8f8" d="M 296.5,328.5 C 299.518,328.335 302.518,328.502 305.5,329C 310.115,330.077 311.615,332.91 310,337.5C 309.28,339.056 308.113,340.056 306.5,340.5C 303.167,340.5 299.833,340.5 296.5,340.5C 296.5,336.5 296.5,332.5 296.5,328.5 Z M 306.5,331.5 C 299.899,328.215 297.066,330.215 298,337.5C 299.062,338.097 300.228,338.43 301.5,338.5C 307.151,338.261 308.818,335.927 306.5,331.5 Z"/></g>
<g><path style="opacity:0.508" fill="#909090" d="M 509.5,319.5 C 509.5,322.5 509.5,325.5 509.5,328.5C 513.702,328.183 517.702,328.517 521.5,329.5C 517.167,329.5 512.833,329.5 508.5,329.5C 508.187,325.958 508.521,322.625 509.5,319.5 Z"/></g>
<g><path style="opacity:0.032" fill="#fefefe" d="M 232.5,329.5 C 236.833,329.5 241.167,329.5 245.5,329.5C 245.5,343.833 245.5,358.167 245.5,372.5C 243.518,359.208 242.851,345.541 243.5,331.5C 239.511,331.884 235.845,331.217 232.5,329.5 Z"/></g>
<g><path style="opacity:0.042" fill="#ececec" d="M 465.5,328.5 C 480.753,328.014 487.587,335.347 486,350.5C 482.132,361.138 474.632,364.972 463.5,362C 451.807,353.44 450.474,343.44 459.5,332C 461.727,331.059 463.727,329.892 465.5,328.5 Z M 466.5,331.5 C 465.279,330.535 463.946,330.702 462.5,332C 462.833,332.333 463.167,332.667 463.5,333C 461.973,334.368 460.473,334.868 459,334.5C 456.823,338.031 455.656,341.864 455.5,346C 455.568,352.728 458.735,357.228 465,359.5C 469.154,359.25 473.32,358.084 477.5,356C 478.618,354.926 479.618,353.76 480.5,352.5C 485.175,338.887 480.509,331.887 466.5,331.5 Z"/></g>
<g><path style="opacity:0.044" fill="#fefefe" d="M 508.5,329.5 C 512.833,329.5 517.167,329.5 521.5,329.5C 521.5,343.833 521.5,358.167 521.5,372.5C 525.167,372.5 528.833,372.5 532.5,372.5C 528.689,373.645 524.689,373.812 520.5,373C 519.833,371.667 519.167,370.333 518.5,369C 518.651,356.931 518.651,344.765 518.5,332.5C 514.884,332.101 511.55,331.101 508.5,329.5 Z"/></g>
<g><path style="opacity:0.021" fill="#fefffe" d="M 545.5,329.5 C 542.434,330.023 539.434,331.023 536.5,332.5C 535.808,331.975 535.308,331.308 535,330.5C 534.831,344.673 534.331,358.673 533.5,372.5C 533.5,358.167 533.5,343.833 533.5,329.5C 537.5,329.5 541.5,329.5 545.5,329.5 Z"/></g>
<g><path style="opacity:0.018" fill="#eeeeee" d="M 193.5,335.5 C 191.05,333.371 189.383,330.704 188.5,327.5C 189.117,327.389 189.617,327.056 190,326.5C 190.5,327.667 191.333,328.5 192.5,329C 191.366,330.016 191.699,330.683 193.5,331C 193.034,332.299 193.034,333.799 193.5,335.5 Z"/></g>
<g><path style="opacity:0.183" fill="#9a9a9a" d="M 545.5,328.5 C 545.5,328.833 545.5,329.167 545.5,329.5C 541.5,329.5 537.5,329.5 533.5,329.5C 533.5,343.833 533.5,358.167 533.5,372.5C 533.167,372.5 532.833,372.5 532.5,372.5C 532.5,357.833 532.5,343.167 532.5,328.5C 536.833,328.5 541.167,328.5 545.5,328.5 Z"/></g>
<g><path style="opacity:0.244" fill="#ececec" d="M 256.5,329.5 C 260.833,329.5 265.167,329.5 269.5,329.5C 266.038,330.482 262.371,330.815 258.5,330.5C 259.149,344.873 258.482,358.873 256.5,372.5C 256.5,358.167 256.5,343.833 256.5,329.5 Z"/></g>
<g><path style="opacity:0.401" fill="#7d7d7d" d="M 182.5,336.5 C 181.505,348.322 181.172,360.322 181.5,372.5C 181.167,372.5 180.833,372.5 180.5,372.5C 180.333,359.829 180.5,347.162 181,334.5C 181.717,335.044 182.217,335.711 182.5,336.5 Z"/></g>
<g><path style="opacity:0.032" fill="#f5f5f5" d="M 182.5,336.5 C 189.833,348.5 197.167,360.5 204.5,372.5C 201.916,372.431 199.916,371.265 198.5,369C 199.098,366.402 197.931,364.569 195,363.5C 192.39,358.386 189.557,353.386 186.5,348.5C 185.201,349.09 184.368,350.09 184,351.5C 183.667,348.167 183.333,344.833 183,341.5C 182.83,352.008 182.33,362.341 181.5,372.5C 181.172,360.322 181.505,348.322 182.5,336.5 Z"/></g>
<g><path style="opacity:0.517" fill="#797979" d="M 131.5,340.5 C 137.5,340.5 143.5,340.5 149.5,340.5C 149.813,344.042 149.479,347.375 148.5,350.5C 148.5,347.5 148.5,344.5 148.5,341.5C 142.642,341.822 136.975,341.489 131.5,340.5 Z"/></g>
<g><path style="opacity:0.542" fill="#7f7f7f" d="M 296.5,328.5 C 296.5,332.5 296.5,336.5 296.5,340.5C 299.833,340.5 303.167,340.5 306.5,340.5C 303.038,341.482 299.371,341.815 295.5,341.5C 295.182,336.968 295.515,332.634 296.5,328.5 Z"/></g>
<g><path style="opacity:0.025" fill="#ebebeb" d="M 321.5,331.5 C 322.629,333.628 322.796,335.961 322,338.5C 321.901,340.653 321.067,342.319 319.5,343.5C 320.803,339.618 321.47,335.618 321.5,331.5 Z"/></g>
<g><path style="opacity:0.004" fill="#fefffe" d="M 429.5,345.5 C 430.833,346.167 430.833,346.167 429.5,345.5 Z"/></g>
<g><path style="opacity:0.042" fill="#e5e5e5" d="M 319.5,343.5 C 318.294,346.298 316.294,348.465 313.5,350C 315.085,353.577 317.419,357.077 320.5,360.5C 320.833,361.833 321.167,363.167 321.5,364.5C 316.617,359.618 312.951,353.951 310.5,347.5C 313.896,347.116 316.896,345.782 319.5,343.5 Z"/></g>
<g><path style="opacity:0.022" fill="#ebebeb" d="M 429.5,345.5 C 427.883,349.117 425.216,351.784 421.5,353.5C 415.855,354.018 410.355,355.018 405,356.5C 404.667,355.833 404.333,355.167 404,354.5C 403.667,360.5 403.333,366.5 403,372.5C 398.599,373.467 394.099,373.8 389.5,373.5C 389.826,354.924 389.493,336.424 388.5,318C 390.581,317.131 392.747,316.631 395,316.5C 401.863,317.733 408.696,317.733 415.5,316.5C 418.82,317.93 422.153,319.43 425.5,321C 431.57,328.819 432.904,336.986 429.5,345.5 Z M 403.5,329.5 C 404.537,331.683 406.037,332.016 408,330.5C 413.649,331.163 415.816,334.163 414.5,339.5C 411.667,341.535 408.667,341.868 405.5,340.5C 404.808,341.025 404.308,341.692 404,342.5C 403.501,338.179 403.334,333.846 403.5,329.5 Z"/></g>
<g><path style="opacity:0.97" fill="#090909" d="M 390.5,319.5 C 399.506,319.334 408.506,319.5 417.5,320C 429.72,325.361 432.887,334.194 427,346.5C 424.635,349.869 421.468,352.036 417.5,353C 412.177,353.499 406.844,353.666 401.5,353.5C 401.5,359.833 401.5,366.167 401.5,372.5C 397.833,372.5 394.167,372.5 390.5,372.5C 390.5,354.833 390.5,337.167 390.5,319.5 Z M 403.5,329.5 C 403.334,333.846 403.501,338.179 404,342.5C 404.308,341.692 404.808,341.025 405.5,340.5C 408.667,341.868 411.667,341.535 414.5,339.5C 415.816,334.163 413.649,331.163 408,330.5C 406.037,332.016 404.537,331.683 403.5,329.5 Z"/></g>
<g><path style="opacity:0.349" fill="#989898" d="M 402.5,328.5 C 402.5,333.5 402.5,338.5 402.5,343.5C 404.167,343.5 405.833,343.5 407.5,343.5C 408.167,343.5 408.833,343.5 409.5,343.5C 410.833,343.5 412.167,343.5 413.5,343.5C 409.702,344.483 405.702,344.817 401.5,344.5C 401.179,338.974 401.512,333.64 402.5,328.5 Z"/></g>
<g><path style="opacity:0.043" fill="#f2f2f2" d="M 402.5,328.5 C 406.846,328.334 411.179,328.501 415.5,329C 420.343,333.38 420.677,338.046 416.5,343C 415.552,343.483 414.552,343.649 413.5,343.5C 412.167,343.5 410.833,343.5 409.5,343.5C 408.833,342.167 408.167,342.167 407.5,343.5C 405.833,343.5 404.167,343.5 402.5,343.5C 402.5,338.5 402.5,333.5 402.5,328.5 Z M 403.5,329.5 C 403.334,333.846 403.501,338.179 404,342.5C 404.308,341.692 404.808,341.025 405.5,340.5C 408.667,341.868 411.667,341.535 414.5,339.5C 415.816,334.163 413.649,331.163 408,330.5C 406.037,332.016 404.537,331.683 403.5,329.5 Z"/></g>
<g><path style="opacity:0.027" fill="#f8f8f8" d="M 299.5,349.5 C 302.434,354.368 305.1,359.368 307.5,364.5C 304.807,363.98 302.807,362.48 301.5,360C 302.791,358.708 302.791,357.542 301.5,356.5C 300.09,355.172 298.924,355.505 298,357.5C 297.826,362.684 297.326,367.684 296.5,372.5C 296.5,364.833 296.5,357.167 296.5,349.5C 297.5,349.5 298.5,349.5 299.5,349.5 Z"/></g>
<g><path style="opacity:0.004" fill="#fefffe" d="M 387.5,350.5 C 388.573,351.251 388.74,352.251 388,353.5C 387.517,352.552 387.351,351.552 387.5,350.5 Z"/></g>
<g><path style="opacity:0.034" fill="#f5f5f5" d="M 131.5,329.5 C 138.167,329.5 144.833,329.5 151.5,329.5C 146.593,331.289 141.26,332.122 135.5,332C 132.72,334.77 133.054,337.104 136.5,339C 141.155,339.499 145.821,339.666 150.5,339.5C 150.824,343.555 150.491,347.555 149.5,351.5C 144.188,352.276 138.855,352.943 133.5,353.5C 133.261,355.467 133.594,357.301 134.5,359C 140.45,360.163 146.45,360.996 152.5,361.5C 152.815,365.371 152.482,369.038 151.5,372.5C 151.5,369.167 151.5,365.833 151.5,362.5C 144.833,362.5 138.167,362.5 131.5,362.5C 131.5,358.5 131.5,354.5 131.5,350.5C 137.167,350.5 142.833,350.5 148.5,350.5C 149.479,347.375 149.813,344.042 149.5,340.5C 143.5,340.5 137.5,340.5 131.5,340.5C 131.5,336.833 131.5,333.167 131.5,329.5 Z"/></g>
<g><path style="opacity:0.071" fill="#e9e9e9" d="M 352.5,329.5 C 359.167,329.5 365.833,329.5 372.5,329.5C 366.342,330.465 360.008,331.132 353.5,331.5C 352.908,334.641 353.908,336.974 356.5,338.5C 361.456,339.394 366.456,339.727 371.5,339.5C 371.5,343.5 371.5,347.5 371.5,351.5C 366.954,351.47 362.287,351.804 357.5,352.5C 353.264,353.702 352.597,355.868 355.5,359C 360.416,360.161 365.416,360.827 370.5,361C 371.416,361.278 372.082,361.778 372.5,362.5C 365.833,362.5 359.167,362.5 352.5,362.5C 352.5,358.5 352.5,354.5 352.5,350.5C 358.167,350.5 363.833,350.5 369.5,350.5C 369.5,347.5 369.5,344.5 369.5,341.5C 363.833,341.5 358.167,341.5 352.5,341.5C 352.5,337.5 352.5,333.5 352.5,329.5 Z"/></g>
<g><path style="opacity:0.004" fill="#fefffe" d="M 301.5,356.5 C 300.833,357.167 300.833,357.167 301.5,356.5 Z"/></g>
<g><path style="opacity:0.157" fill="#949494" d="M 299.5,349.5 C 298.5,349.5 297.5,349.5 296.5,349.5C 296.5,357.167 296.5,364.833 296.5,372.5C 296.167,372.5 295.833,372.5 295.5,372.5C 295.5,364.5 295.5,356.5 295.5,348.5C 297.099,348.232 298.432,348.566 299.5,349.5 Z"/></g>
<g><path style="opacity:0.004" fill="#fefffe" d="M 321.5,360.5 C 320.833,359.167 320.833,359.167 321.5,360.5 Z"/></g>
<g><path style="opacity:0.004" fill="#fefffe" d="M 321.5,360.5 C 322.833,361.167 322.833,361.167 321.5,360.5 Z"/></g>
<g><path style="opacity:0.004" fill="#fefffe" d="M 495.5,360.5 C 496.525,360.897 496.692,361.563 496,362.5C 495.536,361.906 495.369,361.239 495.5,360.5 Z"/></g>
<g><path style="opacity:0.721" fill="#404040" d="M 352.5,362.5 C 359.167,362.5 365.833,362.5 372.5,362.5C 372.5,365.833 372.5,369.167 372.5,372.5C 372.167,372.5 371.833,372.5 371.5,372.5C 371.5,369.5 371.5,366.5 371.5,363.5C 364.978,363.823 358.645,363.49 352.5,362.5 Z"/></g>
<g><path style="opacity:0.013" fill="#fefffe" d="M 372.5,362.5 C 374.832,363.162 375.499,364.495 374.5,366.5C 375.167,367.167 375.833,367.833 376.5,368.5C 374.784,369.549 373.451,370.882 372.5,372.5C 372.5,369.167 372.5,365.833 372.5,362.5 Z"/></g>
<g><path style="opacity:0.058" fill="#f5f5f5" d="M 321.5,364.5 C 322.496,364.414 323.329,364.748 324,365.5C 324.454,367.536 325.287,369.37 326.5,371C 326.43,371.765 326.097,372.265 325.5,372.5C 324.167,369.833 322.833,367.167 321.5,364.5 Z"/></g>
<g><path style="opacity:0.029" fill="#f5f5f5" d="M 490.5,365.5 C 491.167,365.5 491.5,365.833 491.5,366.5C 490.313,368.975 488.313,369.975 485.5,369.5C 486.579,367.457 488.246,366.124 490.5,365.5 Z"/></g>
<g><path style="opacity:0.004" fill="#fefffe" d="M 387.5,367.5 C 388.525,367.897 388.692,368.563 388,369.5C 387.536,368.906 387.369,368.239 387.5,367.5 Z"/></g>
<g><path style="opacity:0.004" fill="#fefffe" d="M 404.5,367.5 C 405.833,368.167 405.833,368.167 404.5,367.5 Z"/></g>
<g><path style="opacity:0.022" fill="#e8e8e8" d="M 307.5,364.5 C 309.95,366.629 311.617,369.296 312.5,372.5C 310.195,371.121 308.195,369.287 306.5,367C 307.252,366.329 307.586,365.496 307.5,364.5 Z"/></g>
<g><path style="opacity:0.039" fill="#ededed" d="M 485.5,369.5 C 485.918,370.222 486.584,370.722 487.5,371C 484.312,372.316 480.978,372.816 477.5,372.5C 480.076,371.512 482.743,370.512 485.5,369.5 Z"/></g>
<g><path style="opacity:0.486" fill="#acacac" d="M 462.5,372.5 C 467.5,372.5 472.5,372.5 477.5,372.5C 472.5,375.167 467.5,375.167 462.5,372.5 Z"/></g>
</svg>
